<svg width="32" height="32" viewBox="0 0 32 32" fill="none" xmlns="http://www.w3.org/2000/svg">
<path fill-rule="evenodd" clip-rule="evenodd" d="M7.71731 18.6933C7.7746 18.7124 7.83351 18.7262 7.8933 18.7346C8.27053 19.6235 8.64565 20.5133 9.01864 21.4039C9.6893 23.0066 10.3653 24.6573 10.5133 25.1319C10.6986 25.7159 10.8933 26.1133 11.1066 26.3853C11.2173 26.5239 11.344 26.6466 11.4933 26.7399C11.5711 26.7886 11.6543 26.828 11.7413 26.8573C12.168 27.0173 12.5573 26.9506 12.8013 26.8693C12.9445 26.8204 13.0807 26.7532 13.2066 26.6693L13.2133 26.6666L16.9813 24.3173L21.3346 27.6533C21.3986 27.7026 21.468 27.7439 21.5426 27.7773C22.0653 28.0039 22.572 28.0839 23.0493 28.0199C23.524 27.9533 23.9013 27.7546 24.1826 27.5293C24.5057 27.2689 24.7632 26.9365 24.9346 26.5586L24.9466 26.5293L24.9506 26.5186L24.9533 26.5133V26.5106L24.9546 26.5093C24.9778 26.4519 24.9957 26.3926 25.008 26.3319L28.9813 6.29861C28.9939 6.23448 29.0001 6.16928 29 6.10394C29 5.51727 28.7786 4.95861 28.26 4.62127C27.8146 4.33194 27.32 4.31861 27.0066 4.34261C26.6706 4.36927 26.3586 4.45194 26.1493 4.51861C26.0321 4.55575 25.9165 4.59756 25.8026 4.64394L25.788 4.65061L3.50264 13.3919L3.49997 13.3933C3.42457 13.421 3.35029 13.4517 3.27731 13.4853C3.10059 13.5647 2.93107 13.6593 2.77064 13.7679C2.46797 13.9746 1.77064 14.5426 1.88931 15.4813C1.98264 16.2279 2.49464 16.6879 2.80797 16.9093C2.97864 17.0306 3.14131 17.1173 3.26131 17.1746C3.31464 17.2013 3.42931 17.2466 3.47864 17.2679L3.49197 17.2719L7.71731 18.6933ZM26.568 6.49061H26.5653C26.5538 6.4957 26.5423 6.50059 26.5306 6.50527L4.21864 15.2586C4.20716 15.2632 4.1956 15.2677 4.18397 15.2719L4.17064 15.2759C4.12988 15.292 4.08984 15.3098 4.05064 15.3293C4.08775 15.3505 4.12603 15.3697 4.16531 15.3866L8.35464 16.7973C8.4295 16.8225 8.50111 16.8565 8.56797 16.8986L22.404 8.79861L22.4173 8.79194C22.471 8.75928 22.5262 8.72903 22.5826 8.70127C22.6786 8.65194 22.832 8.57994 23.0053 8.52661C23.1253 8.48927 23.4813 8.38394 23.8653 8.50794C24.069 8.57214 24.2505 8.69232 24.3891 8.85477C24.5278 9.01721 24.6179 9.21537 24.6493 9.42661C24.699 9.61161 24.7003 9.80625 24.6533 9.99194C24.56 10.3586 24.304 10.6439 24.0693 10.8626C23.8693 11.0493 21.276 13.5506 18.7173 16.0199L15.2333 19.3799L14.6133 19.9799L22.4426 25.9826C22.5483 26.027 22.6631 26.0453 22.7773 26.0359C22.8348 26.0281 22.889 26.0041 22.9333 25.9666C22.9874 25.921 23.0337 25.867 23.0706 25.8066L23.0733 25.8053L26.9266 6.37461C26.8053 6.4038 26.6862 6.44214 26.5706 6.48927L26.568 6.49061ZM15.2866 23.0159L13.724 21.8186L13.3453 24.2253L15.2866 23.0159ZM12.2906 19.4426L13.844 17.9426L17.328 14.5799L18.6253 13.3293L9.93197 18.4186L9.97864 18.5279C10.5269 19.8232 11.0691 21.121 11.6053 22.4213L11.9826 20.0213C12.0168 19.7987 12.1254 19.5956 12.2906 19.4426Z" fill="white"/>
</svg>
